<svg xmlns="http://www.w3.org/2000/svg" xmlns:xlink="http://www.w3.org/1999/xlink" width="500" zoomAndPan="magnify" viewBox="0 0 375 374.999991" height="500" preserveAspectRatio="xMidYMid meet" version="1.0"><defs><clipPath id="45a24b3b6f"><path d="M 123 111.808594 L 269 111.808594 L 269 176 L 123 176 Z M 123 111.808594 " clip-rule="nonzero"/></clipPath><clipPath id="7d60191194"><path d="M 122 166 L 275 166 L 275 263.308594 L 122 263.308594 Z M 122 166 " clip-rule="nonzero"/></clipPath><clipPath id="84e8665333"><path d="M 37.5 132 L 315.75 132 L 315.75 252 L 37.5 252 Z M 37.5 132 " clip-rule="nonzero"/></clipPath></defs><g clip-path="url(#45a24b3b6f)"><path fill="#808f6a" d="M 198.378906 114.339844 C 228.828125 114.339844 254.992188 133.078125 265.972656 159.640625 C 266.824219 159.472656 267.671875 159.308594 268.519531 159.140625 C 268.375 158.78125 268.230469 158.421875 268.078125 158.058594 C 264.269531 149.039062 258.816406 140.941406 251.867188 133.984375 C 244.921875 127.027344 236.832031 121.566406 227.824219 117.753906 C 218.496094 113.800781 208.589844 111.796875 198.378906 111.796875 C 188.167969 111.796875 178.261719 113.800781 168.933594 117.753906 C 159.925781 121.566406 151.835938 127.027344 144.890625 133.984375 C 137.945312 140.941406 132.488281 149.042969 128.679688 158.058594 C 126.304688 163.683594 124.636719 169.519531 123.6875 175.503906 C 124.554688 175.410156 125.429688 175.324219 126.304688 175.242188 C 132.160156 140.714844 162.25 114.339844 198.378906 114.339844 Z M 198.378906 114.339844 " fill-opacity="1" fill-rule="nonzero"/></g><g clip-path="url(#7d60191194)"><path fill="#808f6a" d="M 268.554688 167.003906 C 270.464844 173.523438 271.488281 180.417969 271.488281 187.546875 C 271.488281 227.910156 238.691406 260.753906 198.375 260.753906 C 158.0625 260.753906 125.269531 227.910156 125.269531 187.546875 C 125.269531 185.996094 125.316406 184.453125 125.410156 182.925781 C 124.558594 183.027344 123.707031 183.136719 122.855469 183.253906 C 122.777344 184.679688 122.734375 186.109375 122.734375 187.546875 C 122.734375 197.769531 124.734375 207.691406 128.679688 217.03125 C 132.488281 226.050781 137.945312 234.152344 144.890625 241.105469 C 151.835938 248.058594 159.925781 253.523438 168.933594 257.339844 C 178.261719 261.289062 188.167969 263.292969 198.378906 263.292969 C 208.589844 263.292969 218.5 261.289062 227.824219 257.339844 C 236.832031 253.523438 244.921875 248.0625 251.867188 241.105469 C 258.816406 234.148438 264.269531 226.046875 268.078125 217.03125 C 272.023438 207.691406 274.023438 197.769531 274.023438 187.546875 C 274.023438 180.339844 273.027344 173.28125 271.058594 166.472656 C 270.230469 166.648438 269.398438 166.824219 268.554688 167.003906 Z M 268.554688 167.003906 " fill-opacity="1" fill-rule="nonzero"/></g><g clip-path="url(#84e8665333)"><path fill="#808f6a" d="M 315.671875 159.972656 C 315.582031 159.679688 315.269531 159.425781 314.730469 159.199219 C 310.074219 158.347656 305.328125 157.929688 300.492188 157.953125 C 295.65625 157.976562 290.777344 158.289062 285.851562 158.894531 C 280.925781 159.5 275.964844 160.285156 270.976562 161.25 C 265.980469 162.214844 260.96875 163.222656 255.929688 164.277344 C 250.890625 165.328125 245.84375 166.328125 240.78125 167.269531 C 235.722656 168.210938 230.683594 168.929688 225.667969 169.421875 C 225.847656 169.152344 225.960938 168.949219 226.003906 168.816406 C 227.484375 166.261719 228.925781 163.683594 230.335938 161.082031 C 231.75 158.484375 233.011719 155.9375 234.132812 153.449219 C 235.253906 150.960938 236.191406 148.574219 236.953125 146.285156 C 237.714844 144 238.207031 141.894531 238.433594 139.964844 C 238.65625 137.769531 238.453125 136.085938 237.828125 134.917969 C 237.203125 133.753906 236.375 133.039062 235.34375 132.765625 C 234.3125 132.5 233.183594 132.65625 231.949219 133.238281 C 230.71875 133.820312 229.632812 134.742188 228.695312 135.996094 C 227.351562 137.699219 226.027344 139.753906 224.730469 142.152344 C 223.433594 144.550781 222.15625 147.207031 220.902344 150.121094 C 219.648438 153.035156 218.414062 156.171875 217.207031 159.535156 C 216 162.898438 214.855469 166.398438 213.78125 170.03125 C 207.601562 170.074219 201.511719 169.480469 195.511719 168.246094 C 189.511719 167.011719 183.582031 164.828125 177.710938 161.691406 C 176.863281 161.285156 176.246094 161.152344 175.867188 161.285156 C 175.488281 161.421875 175.296875 161.691406 175.296875 162.09375 C 175.296875 162.496094 175.453125 162.957031 175.765625 163.472656 C 176.082031 163.988281 176.507812 164.402344 177.042969 164.714844 C 183.042969 167.40625 189.046875 169.3125 195.042969 170.433594 C 201.042969 171.554688 207.066406 172.160156 213.113281 172.25 L 212.976562 172.785156 C 211.410156 178.164062 209.988281 183.691406 208.710938 189.363281 C 208.121094 191.988281 207.574219 194.582031 207.066406 197.144531 C 205.863281 198.554688 204.277344 200.03125 202.296875 201.570312 C 200.28125 203.140625 198.140625 204.554688 195.882812 205.808594 C 193.621094 207.0625 191.382812 208.015625 189.164062 208.664062 C 186.949219 209.316406 185.035156 209.460938 183.421875 209.101562 C 182.480469 208.878906 181.675781 208.453125 181.003906 207.824219 C 180.332031 207.195312 179.859375 206.335938 179.59375 205.234375 C 179.324219 204.136719 179.277344 202.757812 179.457031 201.097656 C 179.636719 199.441406 180.105469 197.46875 180.867188 195.179688 C 181.09375 194.464844 181.058594 193.835938 180.765625 193.300781 C 180.476562 192.761719 180.027344 192.402344 179.421875 192.222656 C 178.820312 192.042969 178.113281 192.078125 177.308594 192.324219 C 176.5 192.570312 175.695312 193.074219 174.890625 193.839844 C 174.664062 194.0625 174.195312 194.554688 173.476562 195.320312 C 172.761719 196.082031 171.921875 196.957031 170.960938 197.941406 C 169.996094 198.929688 168.988281 199.960938 167.9375 201.035156 C 166.886719 202.113281 165.886719 203.0625 164.949219 203.894531 C 164.007812 204.722656 163.191406 205.363281 162.496094 205.808594 C 161.800781 206.257812 161.363281 206.347656 161.1875 206.078125 C 160.960938 205.765625 160.859375 205.328125 160.882812 204.765625 C 160.90625 204.207031 160.984375 203.621094 161.117188 203.019531 C 161.253906 202.414062 161.421875 201.839844 161.621094 201.300781 C 161.824219 200.765625 161.992188 200.335938 162.125 200.023438 C 162.75 198.503906 163.601562 197 164.675781 195.519531 C 165.75 194.039062 166.9375 192.726562 168.234375 191.582031 C 169.535156 190.441406 170.898438 189.542969 172.332031 188.894531 C 173.765625 188.242188 175.175781 187.984375 176.5625 188.121094 C 177.640625 188.210938 178.644531 188.558594 179.585938 189.160156 C 180.527344 189.765625 181.308594 190.652344 181.9375 191.820312 C 182.25 192.625 182.6875 193.199219 183.246094 193.535156 C 183.804688 193.871094 184.320312 193.996094 184.789062 193.902344 C 185.261719 193.816406 185.609375 193.542969 185.832031 193.097656 C 186.054688 192.648438 185.988281 192.042969 185.632812 191.277344 C 185.140625 190.292969 184.445312 189.421875 183.550781 188.65625 C 182.652344 187.894531 181.667969 187.234375 180.59375 186.671875 C 179.519531 186.113281 178.433594 185.609375 177.335938 185.160156 C 176.238281 184.710938 175.242188 184.308594 174.347656 183.949219 C 168.480469 181.480469 162.550781 179.742188 156.546875 178.738281 C 150.546875 177.730469 144.570312 177.222656 138.613281 177.222656 C 132.660156 177.222656 126.75 177.617188 120.882812 178.402344 C 115.015625 179.183594 109.253906 180.140625 103.585938 181.257812 C 97.921875 182.378906 92.382812 183.535156 86.964844 184.722656 C 81.546875 185.910156 76.328125 186.90625 71.316406 187.714844 C 66.300781 188.523438 61.496094 189.027344 56.90625 189.226562 C 52.316406 189.429688 48.007812 189.105469 43.976562 188.253906 C 43.484375 187.847656 42.949219 187.558594 42.367188 187.378906 C 41.785156 187.203125 41.203125 187.15625 40.621094 187.242188 C 40.039062 187.335938 39.5 187.5 39.007812 187.746094 C 38.515625 187.996094 38.136719 188.273438 37.867188 188.585938 C 37.597656 188.902344 37.507812 189.214844 37.597656 189.527344 C 37.6875 189.84375 38 190.089844 38.535156 190.269531 C 43.820312 191.257812 49.183594 191.671875 54.625 191.511719 C 60.066406 191.355469 65.570312 190.882812 71.148438 190.097656 C 76.722656 189.3125 82.351562 188.328125 88.039062 187.140625 C 93.726562 185.953125 99.414062 184.796875 105.101562 183.675781 C 110.785156 182.554688 116.476562 181.589844 122.160156 180.785156 C 127.847656 179.976562 133.5 179.550781 139.121094 179.507812 C 144.742188 179.460938 150.304688 179.933594 155.8125 180.917969 C 161.320312 181.90625 166.734375 183.632812 172.066406 186.097656 C 169.78125 186.414062 167.597656 187.097656 165.515625 188.152344 C 163.433594 189.203125 161.574219 190.539062 159.941406 192.152344 C 158.308594 193.765625 156.953125 195.59375 155.878906 197.636719 C 154.804688 199.675781 154.132812 201.859375 153.863281 204.191406 C 153.6875 205.582031 153.761719 206.925781 154.097656 208.226562 C 154.433594 209.527344 155.140625 210.445312 156.214844 210.984375 C 157.421875 211.613281 158.667969 211.75 159.941406 211.390625 C 161.21875 211.03125 162.472656 210.390625 163.703125 209.472656 C 164.9375 208.554688 166.132812 207.453125 167.296875 206.175781 C 168.460938 204.898438 169.535156 203.632812 170.519531 202.375 C 171.503906 201.121094 172.390625 199.976562 173.171875 198.945312 C 173.957031 197.917969 174.59375 197.195312 175.085938 196.792969 C 174.148438 198.632812 173.609375 200.414062 173.476562 202.140625 C 173.339844 203.867188 173.578125 205.414062 174.179688 206.78125 C 174.785156 208.148438 175.757812 209.292969 177.101562 210.210938 C 178.445312 211.132812 180.125 211.679688 182.140625 211.859375 C 184.601562 212.128906 187.121094 211.925781 189.695312 211.253906 C 192.269531 210.582031 194.765625 209.617188 197.1875 208.363281 C 199.605469 207.109375 201.855469 205.628906 203.9375 203.921875 C 204.710938 203.289062 205.441406 202.652344 206.132812 202.015625 C 205.890625 203.332031 205.664062 204.640625 205.449219 205.941406 C 204.554688 211.320312 203.882812 216.445312 203.433594 221.308594 C 202.984375 226.171875 202.828125 230.488281 202.960938 234.253906 C 203.054688 237.886719 203.464844 241.058594 204.203125 243.773438 C 204.945312 246.484375 206.03125 248.558594 207.460938 249.992188 C 208.492188 250.933594 209.464844 251.449219 210.382812 251.539062 C 211.300781 251.628906 212.027344 251.496094 212.566406 251.132812 C 213.101562 250.773438 213.359375 250.304688 213.339844 249.722656 C 213.316406 249.136719 212.902344 248.601562 212.097656 248.109375 C 209.8125 246.808594 208.132812 245.015625 207.058594 242.726562 C 205.984375 240.441406 205.402344 237.503906 205.3125 233.917969 C 205.222656 231.628906 205.335938 229.082031 205.648438 226.28125 C 205.960938 223.480469 206.398438 220.554688 206.957031 217.503906 C 207.515625 214.457031 208.164062 211.363281 208.902344 208.226562 C 209.644531 205.085938 210.4375 202.0625 211.289062 199.144531 C 212.136719 196.230469 213.003906 193.496094 213.875 190.941406 C 214.746094 188.386719 215.5625 186.144531 216.328125 184.214844 C 217.492188 182.464844 218.734375 180.550781 220.054688 178.464844 C 221.375 176.378906 222.753906 174.195312 224.1875 171.90625 C 229.558594 171.503906 234.886719 170.855469 240.171875 169.957031 C 245.453125 169.0625 250.636719 168.097656 255.71875 167.066406 C 260.800781 166.035156 265.761719 165.003906 270.597656 163.972656 C 275.433594 162.941406 280.113281 162.089844 284.632812 161.417969 C 289.15625 160.746094 293.476562 160.351562 297.597656 160.242188 C 301.714844 160.128906 305.613281 160.453125 309.285156 161.214844 C 309.777344 161.621094 310.3125 161.910156 310.894531 162.089844 C 311.476562 162.269531 312.058594 162.3125 312.644531 162.226562 C 313.222656 162.136719 313.761719 161.96875 314.253906 161.722656 C 314.746094 161.476562 315.125 161.195312 315.398438 160.878906 C 315.671875 160.566406 315.761719 160.265625 315.671875 159.972656 Z M 218.480469 175.472656 C 218.617188 174.9375 218.75 174.398438 218.882812 173.859375 C 219.019531 173.324219 219.175781 172.78125 219.355469 172.246094 C 219.53125 172.246094 219.710938 172.234375 219.890625 172.210938 C 220.070312 172.191406 220.25 172.179688 220.429688 172.179688 Z M 222.109375 169.152344 L 220.160156 169.355469 C 221.234375 165.722656 222.433594 162.214844 223.753906 158.828125 C 225.074219 155.445312 226.496094 152.335938 228.019531 149.511719 C 229.363281 147.046875 230.523438 145.164062 231.511719 143.863281 C 232.496094 142.5625 233.191406 141.9375 233.59375 141.980469 C 233.996094 142.027344 234.050781 142.734375 233.761719 144.101562 C 233.46875 145.46875 232.71875 147.566406 231.511719 150.390625 C 230.304688 153.394531 228.871094 156.5 227.214844 159.703125 C 225.554688 162.90625 223.855469 166.058594 222.109375 169.152344 Z M 222.109375 169.152344 " fill-opacity="1" fill-rule="nonzero"/></g></svg>